STARTFONT 2.1
FONT -DEC-Terminal-Medium-R-Narrow--28-200-100-100-C-120-DEC-DECtech
SIZE 20 100 100
FONTBOUNDINGBOX 12 26 0 -4

STARTPROPERTIES 25
CHARSET_REGISTRY "DEC"
CHARSET_ENCODING "DECtech"
CAP_HEIGHT 16
X_HEIGHT 12
AVERAGE_WIDTH 120
FONTNAME_REGISTRY ""
FAMILY_NAME "Terminal"
FOUNDRY "DEC"
WEIGHT_NAME "Medium"
SETWIDTH_NAME "Narrow"
SLANT "R"
ADD_STYLE_NAME ""
PIXEL_SIZE 28
POINT_SIZE 200
RESOLUTION_X 100
RESOLUTION_Y 100
SPACING "C"
CHARSET_COLLECTIONS "DEC-DECtech"
FULL_NAME "Terminal Narrow"
COPYRIGHT "Copyright (c) 1990 Digital Equipment Corp. All rights reserved."
WEIGHT 10
QUAD_WIDTH 12
DEFAULT_CHAR 159
FONT_DESCENT 4
FONT_ASCENT 22
ENDPROPERTIES

CHARS 181

STARTCHAR space
ENCODING 32
SWIDTH 430 0
DWIDTH 12 0
BBX 1 1 0 0
BITMAP
00
ENDCHAR

STARTCHAR exclam
ENCODING 33
SWIDTH 430 0
DWIDTH 12 0
BBX 2 16 5 0
BITMAP
C0
C0
C0
C0
C0
C0
C0
C0
C0
C0
C0
00
00
C0
C0
C0
ENDCHAR

STARTCHAR quotedbl
ENCODING 34
SWIDTH 430 0
DWIDTH 12 0
BBX 6 6 3 12
BITMAP
CC
CC
CC
CC
CC
CC
ENDCHAR

STARTCHAR numbersign
ENCODING 35
SWIDTH 430 0
DWIDTH 12 0
BBX 10 14 1 2
BITMAP
3300
3300
3300
3300
FFC0
FFC0
3300
3300
FFC0
FFC0
3300
3300
3300
3300
ENDCHAR

STARTCHAR dollar
ENCODING 36
SWIDTH 430 0
DWIDTH 12 0
BBX 10 16 1 0
BITMAP
0C00
0C00
3F00
7F80
EDC0
CCC0
EC00
7F00
3F80
0DC0
CCC0
EDC0
7F80
3F00
0C00
0C00
ENDCHAR

STARTCHAR percent
ENCODING 37
SWIDTH 430 0
DWIDTH 12 0
BBX 11 16 1 0
BITMAP
3000
7800
CC60
CCE0
79C0
3380
0700
0E00
1C00
3800
7300
E780
CCC0
0CC0
0780
0300
ENDCHAR

STARTCHAR ampersand
ENCODING 38
SWIDTH 430 0
DWIDTH 12 0
BBX 10 16 1 0
BITMAP
1C00
3E00
7700
6300
6300
7700
3E00
3800
7C00
EEC0
C7C0
C380
C380
E7C0
7EC0
3CC0
ENDCHAR

STARTCHAR quoteright
ENCODING 39
SWIDTH 430 0
DWIDTH 12 0
BBX 3 5 4 13
BITMAP
60
60
60
C0
80
ENDCHAR

STARTCHAR parenleft
ENCODING 40
SWIDTH 430 0
DWIDTH 12 0
BBX 6 20 3 -2
BITMAP
0C
18
30
30
60
60
C0
C0
C0
C0
C0
C0
C0
C0
60
60
30
30
18
0C
ENDCHAR

STARTCHAR parenright
ENCODING 41
SWIDTH 430 0
DWIDTH 12 0
BBX 6 20 3 -2
BITMAP
C0
60
30
30
18
18
0C
0C
0C
0C
0C
0C
0C
0C
18
18
30
30
60
C0
ENDCHAR

STARTCHAR asterisk
ENCODING 42
SWIDTH 430 0
DWIDTH 12 0
BBX 8 10 2 6
BITMAP
18
18
DB
FF
7E
7E
FF
DB
18
18
ENDCHAR

STARTCHAR plus
ENCODING 43
SWIDTH 430 0
DWIDTH 12 0
BBX 10 10 1 3
BITMAP
0C00
0C00
0C00
0C00
FFC0
FFC0
0C00
0C00
0C00
0C00
ENDCHAR

STARTCHAR comma
ENCODING 44
SWIDTH 430 0
DWIDTH 12 0
BBX 3 5 4 -2
BITMAP
60
60
60
C0
80
ENDCHAR

STARTCHAR minus
ENCODING 45
SWIDTH 430 0
DWIDTH 12 0
BBX 10 2 1 7
BITMAP
FFC0
FFC0
ENDCHAR

STARTCHAR period
ENCODING 46
SWIDTH 430 0
DWIDTH 12 0
BBX 2 3 4 0
BITMAP
C0
C0
C0
ENDCHAR

STARTCHAR slash
ENCODING 47
SWIDTH 430 0
DWIDTH 12 0
BBX 9 18 1 -1
BITMAP
0180
0180
0300
0300
0300
0600
0600
0C00
0C00
1800
1800
3000
3000
6000
6000
6000
C000
C000
ENDCHAR

STARTCHAR zero
ENCODING 48
SWIDTH 430 0
DWIDTH 12 0
BBX 9 16 1 0
BITMAP
1C00
3E00
6300
6300
C180
C180
C180
C180
C180
C180
C180
C180
6300
6300
3E00
1C00
ENDCHAR

STARTCHAR one
ENCODING 49
SWIDTH 430 0
DWIDTH 12 0
BBX 8 16 2 0
BITMAP
18
38
78
78
D8
D8
18
18
18
18
18
18
18
18
FF
FF
ENDCHAR

STARTCHAR two
ENCODING 50
SWIDTH 430 0
DWIDTH 12 0
BBX 9 16 1 0
BITMAP
3E00
7F00
E380
C180
C180
0380
0700
0E00
1C00
1800
3000
7000
6000
C180
FF80
FF80
ENDCHAR

STARTCHAR three
ENCODING 51
SWIDTH 430 0
DWIDTH 12 0
BBX 9 16 1 0
BITMAP
3E00
7F00
E380
C180
0180
0380
1F00
1F00
0380
0180
0180
0180
C180
E380
7F00
3E00
ENDCHAR

STARTCHAR four
ENCODING 52
SWIDTH 430 0
DWIDTH 12 0
BBX 9 16 2 0
BITMAP
0E00
0E00
1E00
1E00
3600
3600
6600
6600
C600
C600
FF80
FF80
0600
0600
0600
0600
ENDCHAR

STARTCHAR five
ENCODING 53
SWIDTH 430 0
DWIDTH 12 0
BBX 9 16 1 0
BITMAP
FF80
FF80
C000
C000
C000
DE00
FF00
E380
C180
0180
0180
0180
C180
E380
7F00
3E00
ENDCHAR

STARTCHAR six
ENCODING 54
SWIDTH 430 0
DWIDTH 12 0
BBX 9 16 1 0
BITMAP
3E00
7F00
E380
C180
C000
C000
DE00
FF00
E380
C180
C180
C180
C180
E380
7F00
3E00
ENDCHAR

STARTCHAR seven
ENCODING 55
SWIDTH 430 0
DWIDTH 12 0
BBX 9 16 1 0
BITMAP
FF80
FF80
0180
0180
0300
0300
0600
0600
0C00
0C00
1800
1800
3000
3000
6000
6000
ENDCHAR

STARTCHAR eight
ENCODING 56
SWIDTH 430 0
DWIDTH 12 0
BBX 9 16 1 0
BITMAP
3E00
7F00
E380
C180
C180
E380
7F00
7F00
E380
C180
C180
C180
C180
E380
7F00
3E00
ENDCHAR

STARTCHAR nine
ENCODING 57
SWIDTH 430 0
DWIDTH 12 0
BBX 9 16 1 0
BITMAP
3E00
7F00
E380
C180
C180
C180
C180
E380
7F80
3D80
0180
0180
C180
E380
7F00
3E00
ENDCHAR

STARTCHAR colon
ENCODING 58
SWIDTH 430 0
DWIDTH 12 0
BBX 2 10 5 0
BITMAP
C0
C0
C0
00
00
00
00
C0
C0
C0
ENDCHAR

STARTCHAR semicolon
ENCODING 59
SWIDTH 430 0
DWIDTH 12 0
BBX 4 12 3 -2
BITMAP
30
30
30
00
00
00
00
30
30
30
60
C0
ENDCHAR

STARTCHAR less
ENCODING 60
SWIDTH 430 0
DWIDTH 12 0
BBX 9 14 2 0
BITMAP
0380
0700
0E00
1C00
3800
7000
E000
E000
7000
3800
1C00
0E00
0700
0380
ENDCHAR

STARTCHAR equal
ENCODING 61
SWIDTH 430 0
DWIDTH 12 0
BBX 10 6 1 5
BITMAP
FFC0
FFC0
0000
0000
FFC0
FFC0
ENDCHAR

STARTCHAR greater
ENCODING 62
SWIDTH 430 0
DWIDTH 12 0
BBX 9 14 2 0
BITMAP
E000
7000
3800
1C00
0E00
0700
0380
0380
0700
0E00
1C00
3800
7000
E000
ENDCHAR

STARTCHAR question
ENCODING 63
SWIDTH 430 0
DWIDTH 12 0
BBX 10 16 1 0
BITMAP
3F00
7F80
E1C0
C0C0
C0C0
01C0
0380
0700
0E00
0C00
0C00
0C00
0000
0C00
0C00
0C00
ENDCHAR

STARTCHAR at
ENCODING 64
SWIDTH 430 0
DWIDTH 12 0
BBX 10 16 1 0
BITMAP
3F00
7F80
E1C0
C0C0
C6C0
CFC0
CCC0
CCC0
CCC0
CCC0
CFC0
C6C0
C000
E000
7F80
3F00
ENDCHAR

STARTCHAR A
ENCODING 65
SWIDTH 430 0
DWIDTH 12 0
BBX 10 16 1 0
BITMAP
0C00
0C00
1E00
3300
3300
6180
6180
C0C0
C0C0
FFC0
FFC0
C0C0
C0C0
C0C0
C0C0
C0C0
ENDCHAR

STARTCHAR B
ENCODING 66
SWIDTH 430 0
DWIDTH 12 0
BBX 10 16 1 0
BITMAP
FF00
FF80
C1C0
C0C0
C0C0
C1C0
FF80
FF80
C1C0
C0C0
C0C0
C0C0
C0C0
C1C0
FF80
FF00
ENDCHAR

STARTCHAR C
ENCODING 67
SWIDTH 430 0
DWIDTH 12 0
BBX 10 16 1 0
BITMAP
3F00
7F80
E1C0
C0C0
C000
C000
C000
C000
C000
C000
C000
C000
C0C0
E1C0
7F80
3F00
ENDCHAR

STARTCHAR D
ENCODING 68
SWIDTH 430 0
DWIDTH 12 0
BBX 10 16 1 0
BITMAP
FF00
FF80
61C0
60C0
60C0
60C0
60C0
60C0
60C0
60C0
60C0
60C0
60C0
61C0
FF80
FF00
ENDCHAR

STARTCHAR E
ENCODING 69
SWIDTH 430 0
DWIDTH 12 0
BBX 10 16 1 0
BITMAP
FFC0
FFC0
C000
C000
C000
C000
C000
FF00
FF00
C000
C000
C000
C000
C000
FFC0
FFC0
ENDCHAR

STARTCHAR F
ENCODING 70
SWIDTH 430 0
DWIDTH 12 0
BBX 10 16 1 0
BITMAP
FFC0
FFC0
C000
C000
C000
C000
C000
FF00
FF00
C000
C000
C000
C000
C000
C000
C000
ENDCHAR

STARTCHAR G
ENCODING 71
SWIDTH 430 0
DWIDTH 12 0
BBX 10 16 1 0
BITMAP
3F00
7F80
E1C0
C0C0
C000
C000
C000
C3C0
C3C0
C0C0
C0C0
C0C0
C0C0
E0C0
7FC0
3FC0
ENDCHAR

STARTCHAR H
ENCODING 72
SWIDTH 430 0
DWIDTH 12 0
BBX 10 16 1 0
BITMAP
C0C0
C0C0
C0C0
C0C0
C0C0
C0C0
C0C0
FFC0
FFC0
C0C0
C0C0
C0C0
C0C0
C0C0
C0C0
C0C0
ENDCHAR

STARTCHAR I
ENCODING 73
SWIDTH 430 0
DWIDTH 12 0
BBX 10 16 1 0
BITMAP
FFC0
FFC0
0C00
0C00
0C00
0C00
0C00
0C00
0C00
0C00
0C00
0C00
0C00
0C00
FFC0
FFC0
ENDCHAR

STARTCHAR J
ENCODING 74
SWIDTH 430 0
DWIDTH 12 0
BBX 10 16 1 0
BITMAP
0FC0
0FC0
0180
0180
0180
0180
0180
0180
0180
0180
C180
C180
C180
E380
7F00
3E00
ENDCHAR

STARTCHAR K
ENCODING 75
SWIDTH 430 0
DWIDTH 12 0
BBX 10 16 1 0
BITMAP
C0C0
C1C0
C380
C700
CE00
DC00
F800
F000
F000
F800
DC00
CE00
C700
C380
C1C0
C0C0
ENDCHAR

STARTCHAR L
ENCODING 76
SWIDTH 430 0
DWIDTH 12 0
BBX 10 16 1 0
BITMAP
C000
C000
C000
C000
C000
C000
C000
C000
C000
C000
C000
C000
C000
C000
FFC0
FFC0
ENDCHAR

STARTCHAR M
ENCODING 77
SWIDTH 430 0
DWIDTH 12 0
BBX 10 16 1 0
BITMAP
C0C0
C0C0
E1C0
E1C0
F3C0
F3C0
DEC0
DEC0
CCC0
CCC0
CCC0
C0C0
C0C0
C0C0
C0C0
C0C0
ENDCHAR

STARTCHAR N
ENCODING 78
SWIDTH 430 0
DWIDTH 12 0
BBX 10 16 1 0
BITMAP
C0C0
E0C0
E0C0
F0C0
F0C0
D8C0
D8C0
CCC0
CCC0
C6C0
C6C0
C3C0
C3C0
C1C0
C1C0
C0C0
ENDCHAR

STARTCHAR O
ENCODING 79
SWIDTH 430 0
DWIDTH 12 0
BBX 10 16 1 0
BITMAP
3F00
7F80
E1C0
C0C0
C0C0
C0C0
C0C0
C0C0
C0C0
C0C0
C0C0
C0C0
C0C0
E1C0
7F80
3F00
ENDCHAR

STARTCHAR P
ENCODING 80
SWIDTH 430 0
DWIDTH 12 0
BBX 10 16 1 0
BITMAP
FF00
FF80
C1C0
C0C0
C0C0
C0C0
C0C0
C1C0
FF80
FF00
C000
C000
C000
C000
C000
C000
ENDCHAR

STARTCHAR Q
ENCODING 81
SWIDTH 430 0
DWIDTH 12 0
BBX 10 18 1 -2
BITMAP
3F00
7F80
E1C0
C0C0
C0C0
C0C0
C0C0
C0C0
C0C0
C0C0
C0C0
C0C0
CCC0
E7C0
7F80
3F00
0180
00C0
ENDCHAR

STARTCHAR R
ENCODING 82
SWIDTH 430 0
DWIDTH 12 0
BBX 10 16 1 0
BITMAP
FF00
FF80
C1C0
C0C0
C0C0
C0C0
C0C0
C1C0
FF80
FF00
C600
C300
C380
C180
C1C0
C0C0
ENDCHAR

STARTCHAR S
ENCODING 83
SWIDTH 430 0
DWIDTH 12 0
BBX 10 16 1 0
BITMAP
3F00
7F80
E1C0
C0C0
C000
E000
7F00
3F80
01C0
00C0
00C0
00C0
C0C0
E1C0
7F80
3F00
ENDCHAR

STARTCHAR T
ENCODING 84
SWIDTH 430 0
DWIDTH 12 0
BBX 10 16 1 0
BITMAP
FFC0
FFC0
0C00
0C00
0C00
0C00
0C00
0C00
0C00
0C00
0C00
0C00
0C00
0C00
0C00
0C00
ENDCHAR

STARTCHAR U
ENCODING 85
SWIDTH 430 0
DWIDTH 12 0
BBX 10 16 1 0
BITMAP
C0C0
C0C0
C0C0
C0C0
C0C0
C0C0
C0C0
C0C0
C0C0
C0C0
C0C0
C0C0
C0C0
E1C0
7F80
3F00
ENDCHAR

STARTCHAR V
ENCODING 86
SWIDTH 430 0
DWIDTH 12 0
BBX 10 16 1 0
BITMAP
C0C0
C0C0
C0C0
C0C0
C0C0
C0C0
C0C0
C0C0
E1C0
6180
6180
3300
3300
1E00
1E00
0C00
ENDCHAR

STARTCHAR W
ENCODING 87
SWIDTH 430 0
DWIDTH 12 0
BBX 10 16 1 0
BITMAP
C0C0
C0C0
C0C0
C0C0
C0C0
C0C0
CCC0
CCC0
CCC0
CCC0
CCC0
CCC0
CCC0
CCC0
FFC0
7380
ENDCHAR

STARTCHAR X
ENCODING 88
SWIDTH 430 0
DWIDTH 12 0
BBX 10 16 1 0
BITMAP
C0C0
C0C0
C0C0
6180
6180
3300
3F00
1E00
1E00
3F00
3300
6180
6180
C0C0
C0C0
C0C0
ENDCHAR

STARTCHAR Y
ENCODING 89
SWIDTH 430 0
DWIDTH 12 0
BBX 10 16 1 0
BITMAP
C0C0
C0C0
C0C0
C0C0
C0C0
E1C0
6180
7380
3F00
1E00
0C00
0C00
0C00
0C00
0C00
0C00
ENDCHAR

STARTCHAR Z
ENCODING 90
SWIDTH 430 0
DWIDTH 12 0
BBX 10 16 1 0
BITMAP
FFC0
FFC0
00C0
00C0
01C0
0380
0700
0E00
1C00
3800
7000
E000
C000
C000
FFC0
FFC0
ENDCHAR

STARTCHAR bracketleft
ENCODING 91
SWIDTH 430 0
DWIDTH 12 0
BBX 6 20 3 -2
BITMAP
FC
FC
C0
C0
C0
C0
C0
C0
C0
C0
C0
C0
C0
C0
C0
C0
C0
C0
FC
FC
ENDCHAR

STARTCHAR backslash
ENCODING 92
SWIDTH 430 0
DWIDTH 12 0
BBX 9 18 2 -1
BITMAP
C000
C000
6000
6000
6000
3000
3000
1800
1800
0C00
0C00
0600
0600
0300
0300
0300
0180
0180
ENDCHAR

STARTCHAR bracketright
ENCODING 93
SWIDTH 430 0
DWIDTH 12 0
BBX 6 20 3 -2
BITMAP
FC
FC
0C
0C
0C
0C
0C
0C
0C
0C
0C
0C
0C
0C
0C
0C
0C
0C
FC
FC
ENDCHAR

STARTCHAR asciicircum
ENCODING 94
SWIDTH 430 0
DWIDTH 12 0
BBX 10 6 1 6
BITMAP
0C00
1E00
3F00
7380
E1C0
C0C0
ENDCHAR

STARTCHAR ldblank
ENCODING 95
SWIDTH 430 0
DWIDTH 12 0
BBX 1 1 0 0
BITMAP
00
ENDCHAR

STARTCHAR diamond
ENCODING 96
SWIDTH 430 0
DWIDTH 12 0
BBX 9 9 2 2
BITMAP
0800
1C00
3E00
7F00
FF80
7F00
3E00
1C00
0800
ENDCHAR

STARTCHAR checkerboard
ENCODING 97
SWIDTH 430 0
DWIDTH 12 0
BBX 12 26 0 -4
BITMAP
AAA0
5550
AAA0
5550
AAA0
5550
AAA0
5550
AAA0
5550
AAA0
5550
AAA0
5550
AAA0
5550
AAA0
5550
AAA0
5550
AAA0
5550
AAA0
5550
AAA0
5550
ENDCHAR

STARTCHAR HT
ENCODING 98
SWIDTH 430 0
DWIDTH 12 0
BBX 8 18 2 0
BITMAP
CC
CC
CC
FC
FC
CC
CC
CC
00
00
3F
3F
0C
0C
0C
0C
0C
0C
ENDCHAR

STARTCHAR FF
ENCODING 99
SWIDTH 430 0
DWIDTH 12 0
BBX 8 18 2 0
BITMAP
F8
F8
C0
F0
F0
C0
C0
C0
00
00
1F
1F
18
1E
1E
18
18
18
ENDCHAR

STARTCHAR CR
ENCODING 100
SWIDTH 430 0
DWIDTH 12 0
BBX 8 18 2 0
BITMAP
38
7C
CE
C0
C0
CE
7C
38
00
00
7C
7E
66
66
7E
7C
6E
67
ENDCHAR

STARTCHAR LF
ENCODING 101
SWIDTH 430 0
DWIDTH 12 0
BBX 5 18 4 0
BITMAP
F8
F8
C0
F0
F0
C0
C0
C0
00
00
F8
F8
C0
F0
F0
C0
C0
C0
ENDCHAR

STARTCHAR degree
ENCODING 102
SWIDTH 430 0
DWIDTH 12 0
BBX 6 6 3 11
BITMAP
30
78
CC
CC
78
30
ENDCHAR

STARTCHAR plusminus
ENCODING 103
SWIDTH 430 0
DWIDTH 12 0
BBX 10 13 1 0
BITMAP
0C00
0C00
0C00
0C00
FFC0
FFC0
0C00
0C00
0C00
0C00
0000
FFC0
FFC0
ENDCHAR

STARTCHAR NL
ENCODING 104
SWIDTH 430 0
DWIDTH 12 0
BBX 8 18 2 0
BITMAP
C3
E3
F3
DB
CF
C7
C3
C3
00
00
30
30
30
30
30
30
3F
3F
ENDCHAR

STARTCHAR VT
ENCODING 105
SWIDTH 430 0
DWIDTH 12 0
BBX 8 18 2 0
BITMAP
C3
C3
C3
66
66
3C
3C
18
00
00
FF
FF
18
18
18
18
18
18
ENDCHAR

STARTCHAR ldcornsqlr
ENCODING 106
SWIDTH 430 0
DWIDTH 12 0
BBX 7 15 0 7
BITMAP
06
06
06
06
06
06
06
06
06
06
06
06
06
FE
FE
ENDCHAR

STARTCHAR ldcornsqur
ENCODING 107
SWIDTH 430 0
DWIDTH 12 0
BBX 7 13 0 -4
BITMAP
FE
FE
06
06
06
06
06
06
06
06
06
06
06
ENDCHAR

STARTCHAR ldcornsqul
ENCODING 108
SWIDTH 430 0
DWIDTH 12 0
BBX 7 13 5 -4
BITMAP
FE
FE
C0
C0
C0
C0
C0
C0
C0
C0
C0
C0
C0
ENDCHAR

STARTCHAR ldcornsqll
ENCODING 109
SWIDTH 430 0
DWIDTH 12 0
BBX 7 15 5 7
BITMAP
C0
C0
C0
C0
C0
C0
C0
C0
C0
C0
C0
C0
C0
FE
FE
ENDCHAR

STARTCHAR ldcross
ENCODING 110
SWIDTH 430 0
DWIDTH 12 0
BBX 12 26 0 -4
BITMAP
0600
0600
0600
0600
0600
0600
0600
0600
0600
0600
0600
0600
0600
FFF0
FFF0
0600
0600
0600
0600
0600
0600
0600
0600
0600
0600
0600
ENDCHAR

STARTCHAR ldscan1
ENCODING 111
SWIDTH 430 0
DWIDTH 12 0
BBX 12 2 0 20
BITMAP
FFF0
FFF0
ENDCHAR

STARTCHAR ldscan3
ENCODING 112
SWIDTH 430 0
DWIDTH 12 0
BBX 12 2 0 12
BITMAP
FFF0
FFF0
ENDCHAR

STARTCHAR ldhorizontal
ENCODING 113
SWIDTH 430 0
DWIDTH 12 0
BBX 12 2 0 7
BITMAP
FFF0
FFF0
ENDCHAR

STARTCHAR ldscan7
ENCODING 114
SWIDTH 430 0
DWIDTH 12 0
BBX 12 2 0 2
BITMAP
FFF0
FFF0
ENDCHAR

STARTCHAR ldscan9
ENCODING 115
SWIDTH 430 0
DWIDTH 12 0
BBX 12 2 0 -4
BITMAP
FFF0
FFF0
ENDCHAR

STARTCHAR ldteelft
ENCODING 116
SWIDTH 430 0
DWIDTH 12 0
BBX 7 26 5 -4
BITMAP
C0
C0
C0
C0
C0
C0
C0
C0
C0
C0
C0
C0
C0
FE
FE
C0
C0
C0
C0
C0
C0
C0
C0
C0
C0
C0
ENDCHAR

STARTCHAR ldteert
ENCODING 117
SWIDTH 430 0
DWIDTH 12 0
BBX 7 26 0 -4
BITMAP
06
06
06
06
06
06
06
06
06
06
06
06
06
FE
FE
06
06
06
06
06
06
06
06
06
06
06
ENDCHAR

STARTCHAR ldteebt
ENCODING 118
SWIDTH 430 0
DWIDTH 12 0
BBX 12 15 0 7
BITMAP
0600
0600
0600
0600
0600
0600
0600
0600
0600
0600
0600
0600
0600
FFF0
FFF0
ENDCHAR

STARTCHAR ldteetp
ENCODING 119
SWIDTH 430 0
DWIDTH 12 0
BBX 12 13 0 -4
BITMAP
FFF0
FFF0
0600
0600
0600
0600
0600
0600
0600
0600
0600
0600
0600
ENDCHAR

STARTCHAR ldvertical
ENCODING 120
SWIDTH 430 0
DWIDTH 12 0
BBX 2 26 5 -4
BITMAP
C0
C0
C0
C0
C0
C0
C0
C0
C0
C0
C0
C0
C0
C0
C0
C0
C0
C0
C0
C0
C0
C0
C0
C0
C0
C0
ENDCHAR

STARTCHAR lessequal
ENCODING 121
SWIDTH 430 0
DWIDTH 12 0
BBX 8 15 2 0
BITMAP
06
0E
1C
38
70
E0
E0
70
38
1C
0E
06
00
FF
FF
ENDCHAR

STARTCHAR greaterequal
ENCODING 122
SWIDTH 430 0
DWIDTH 12 0
BBX 8 15 2 0
BITMAP
60
70
38
1C
0E
07
07
0E
1C
38
70
60
00
FF
FF
ENDCHAR

STARTCHAR pi
ENCODING 123
SWIDTH 430 0
DWIDTH 12 0
BBX 10 12 1 0
BITMAP
FFC0
FFC0
3180
3180
3180
3180
3180
3180
3180
3180
E180
C180
ENDCHAR

STARTCHAR notequal
ENCODING 124
SWIDTH 430 0
DWIDTH 12 0
BBX 10 10 1 3
BITMAP
0300
0300
FFC0
FFC0
0C00
0C00
FFC0
FFC0
3000
3000
ENDCHAR

STARTCHAR sterling
ENCODING 125
SWIDTH 430 0
DWIDTH 12 0
BBX 10 16 1 0
BITMAP
0F00
1F80
39C0
30C0
3000
3000
FF00
FF00
3000
3000
3000
3000
3000
38C0
7FC0
CF80
ENDCHAR

STARTCHAR periodcentered
ENCODING 126
SWIDTH 430 0
DWIDTH 12 0
BBX 2 2 5 6
BITMAP
C0
C0
ENDCHAR

STARTCHAR Error
ENCODING 159
SWIDTH 430 0
DWIDTH 12 0
BBX 10 24 1 -2
BITMAP
1E00
7F80
7F80
F3C0
E1C0
E1C0
E1C0
E1C0
F000
7800
7C00
3C00
1E00
1E00
0E00
0E00
0E00
0E00
0000
0000
0E00
0E00
0E00
0E00
ENDCHAR

STARTCHAR ldradicalbt
ENCODING 161
SWIDTH 654 0
DWIDTH 12 0
BBX 8 22 0 0
BITMAP
03
03
03
03
03
03
03
03
03
03
03
03
03
03
03
03
F3
FB
1F
0F
07
03
ENDCHAR

STARTCHAR ldradicaltp
ENCODING 162
SWIDTH 654 0
DWIDTH 12 0
BBX 6 14 6 -4
BITMAP
FC
FC
C0
C0
C0
C0
C0
C0
C0
C0
C0
C0
C0
C0
ENDCHAR

STARTCHAR ldhorizontal
ENCODING 163
SWIDTH 654 0
DWIDTH 12 0
BBX 12 2 0 8
BITMAP
FFF0
FFF0
ENDCHAR

STARTCHAR ldintegraltp
ENCODING 164
SWIDTH 654 0
DWIDTH 12 0
BBX 6 24 6 -4
BITMAP
30
78
CC
CC
C0
C0
C0
C0
C0
C0
C0
C0
C0
C0
C0
C0
C0
C0
C0
C0
C0
C0
C0
C0
ENDCHAR

STARTCHAR ldintegralbt
ENCODING 165
SWIDTH 654 0
DWIDTH 12 0
BBX 6 24 2 -2
BITMAP
0C
0C
0C
0C
0C
0C
0C
0C
0C
0C
0C
0C
0C
0C
0C
0C
0C
0C
0C
0C
CC
CC
78
30
ENDCHAR

STARTCHAR ldvertical
ENCODING 166
SWIDTH 654 0
DWIDTH 12 0
BBX 2 26 6 -4
BITMAP
C0
C0
C0
C0
C0
C0
C0
C0
C0
C0
C0
C0
C0
C0
C0
C0
C0
C0
C0
C0
C0
C0
C0
C0
C0
C0
ENDCHAR

STARTCHAR ldbracketlfttp
ENCODING 167
SWIDTH 654 0
DWIDTH 12 0
BBX 6 24 6 -4
BITMAP
FC
FC
C0
C0
C0
C0
C0
C0
C0
C0
C0
C0
C0
C0
C0
C0
C0
C0
C0
C0
C0
C0
C0
C0
ENDCHAR

STARTCHAR ldbracketlftbt
ENCODING 168
SWIDTH 654 0
DWIDTH 12 0
BBX 6 24 6 -2
BITMAP
C0
C0
C0
C0
C0
C0
C0
C0
C0
C0
C0
C0
C0
C0
C0
C0
C0
C0
C0
C0
C0
C0
FC
FC
ENDCHAR

STARTCHAR ldbracketrttp
ENCODING 169
SWIDTH 654 0
DWIDTH 12 0
BBX 6 24 2 -4
BITMAP
FC
FC
0C
0C
0C
0C
0C
0C
0C
0C
0C
0C
0C
0C
0C
0C
0C
0C
0C
0C
0C
0C
0C
0C
ENDCHAR

STARTCHAR ldbracketrtbt
ENCODING 170
SWIDTH 654 0
DWIDTH 12 0
BBX 6 24 2 -2
BITMAP
0C
0C
0C
0C
0C
0C
0C
0C
0C
0C
0C
0C
0C
0C
0C
0C
0C
0C
0C
0C
0C
0C
FC
FC
ENDCHAR

STARTCHAR ldbracelfttp
ENCODING 171
SWIDTH 654 0
DWIDTH 12 0
BBX 6 24 6 -4
BITMAP
3C
7C
C0
C0
C0
C0
C0
C0
C0
C0
C0
C0
C0
C0
C0
C0
C0
C0
C0
C0
C0
C0
C0
C0
ENDCHAR

STARTCHAR ldbracelftbt
ENCODING 172
SWIDTH 654 0
DWIDTH 12 0
BBX 6 24 6 -2
BITMAP
C0
C0
C0
C0
C0
C0
C0
C0
C0
C0
C0
C0
C0
C0
C0
C0
C0
C0
C0
C0
C0
C0
7C
3C
ENDCHAR

STARTCHAR ldbracerttp
ENCODING 173
SWIDTH 654 0
DWIDTH 12 0
BBX 6 24 2 -4
BITMAP
F0
F8
0C
0C
0C
0C
0C
0C
0C
0C
0C
0C
0C
0C
0C
0C
0C
0C
0C
0C
0C
0C
0C
0C
ENDCHAR

STARTCHAR ldbracertbt
ENCODING 174
SWIDTH 654 0
DWIDTH 12 0
BBX 6 24 2 -2
BITMAP
0C
0C
0C
0C
0C
0C
0C
0C
0C
0C
0C
0C
0C
0C
0C
0C
0C
0C
0C
0C
0C
0C
F8
F0
ENDCHAR

STARTCHAR ldbracelftmid
ENCODING 175
SWIDTH 654 0
DWIDTH 12 0
BBX 6 26 2 -4
BITMAP
0C
0C
0C
0C
0C
0C
0C
0C
0C
1C
38
70
E0
E0
70
38
1C
0C
0C
0C
0C
0C
0C
0C
0C
0C
ENDCHAR

STARTCHAR ldbracertmid
ENCODING 176
SWIDTH 654 0
DWIDTH 12 0
BBX 6 26 6 -4
BITMAP
C0
C0
C0
C0
C0
C0
C0
C0
C0
E0
70
38
1C
1C
38
70
E0
C0
C0
C0
C0
C0
C0
C0
C0
C0
ENDCHAR

STARTCHAR ldsigmalfttp
ENCODING 177
SWIDTH 654 0
DWIDTH 12 0
BBX 7 14 5 -4
BITMAP
FE
FE
C0
E0
60
70
30
38
18
1C
0C
0E
06
06
ENDCHAR

STARTCHAR ldsigmalftbt
ENCODING 178
SWIDTH 654 0
DWIDTH 12 0
BBX 7 14 5 8
BITMAP
06
06
0E
0C
1C
18
38
30
70
60
E0
C0
FE
FE
ENDCHAR

STARTCHAR ldbackslash
ENCODING 179
SWIDTH 654 0
DWIDTH 12 0
BBX 12 26 0 -4
BITMAP
C000
C000
E000
6000
7000
3000
3800
1800
1C00
0C00
0C00
0E00
0600
0700
0300
0300
0380
0180
01C0
00C0
00C0
00E0
0060
0070
0030
0030
ENDCHAR

STARTCHAR ldslash
ENCODING 180
SWIDTH 654 0
DWIDTH 12 0
BBX 12 26 0 -4
BITMAP
0030
0030
0070
0060
00E0
00C0
01C0
0180
0380
0300
0300
0700
0600
0E00
0C00
0C00
1C00
1800
3800
3000
3000
7000
6000
E000
C000
C000
ENDCHAR

STARTCHAR ldsigmarttp
ENCODING 181
SWIDTH 654 0
DWIDTH 12 0
BBX 10 6 0 4
BITMAP
FFC0
FFC0
00C0
00C0
00C0
00C0
ENDCHAR

STARTCHAR ldsigmartbt
ENCODING 182
SWIDTH 654 0
DWIDTH 12 0
BBX 10 6 0 8
BITMAP
00C0
00C0
00C0
00C0
FFC0
FFC0
ENDCHAR

STARTCHAR ldsigmamid
ENCODING 183
SWIDTH 654 0
DWIDTH 12 0
BBX 7 26 0 -4
BITMAP
C0
C0
60
60
70
30
18
18
1C
0C
0E
06
06
06
06
0E
0C
1C
18
38
30
70
60
60
C0
C0
ENDCHAR

STARTCHAR lessequal
ENCODING 188
SWIDTH 654 0
DWIDTH 12 0
BBX 8 15 2 0
BITMAP
06
0E
1C
38
70
E0
E0
70
38
1C
0E
06
00
FF
FF
ENDCHAR

STARTCHAR notequal
ENCODING 189
SWIDTH 654 0
DWIDTH 12 0
BBX 10 10 1 3
BITMAP
0180
0300
FFC0
FFC0
0C00
1800
FFC0
FFC0
6000
C000
ENDCHAR

STARTCHAR greaterequal
ENCODING 190
SWIDTH 654 0
DWIDTH 12 0
BBX 8 15 2 1
BITMAP
60
70
38
1C
0E
07
07
0E
1C
38
70
60
00
FF
FF
ENDCHAR

STARTCHAR integral
ENCODING 191
SWIDTH 654 0
DWIDTH 12 0
BBX 10 22 1 -2
BITMAP
0300
0780
0CC0
0CC0
0C00
0C00
0C00
0C00
0C00
0C00
0C00
0C00
0C00
0C00
0C00
0C00
0C00
0C00
CC00
CC00
7800
3000
ENDCHAR

STARTCHAR therefore
ENCODING 192
SWIDTH 654 0
DWIDTH 12 0
BBX 10 10 1 4
BITMAP
0C00
0C00
0C00
0000
0000
0000
0000
C0C0
C0C0
C0C0
ENDCHAR

STARTCHAR proportional
ENCODING 193
SWIDTH 654 0
DWIDTH 12 0
BBX 10 12 1 2
BITMAP
30C0
7BC0
CF00
CE00
CE00
CE00
CE00
CE00
CE00
CF00
7BC0
30C0
ENDCHAR

STARTCHAR infinity
ENCODING 194
SWIDTH 654 0
DWIDTH 12 0
BBX 10 12 1 2
BITMAP
3300
7F80
CCC0
CCC0
CCC0
CCC0
CCC0
CCC0
CCC0
CCC0
7F80
3300
ENDCHAR

STARTCHAR divide
ENCODING 195
SWIDTH 654 0
DWIDTH 12 0
BBX 10 10 1 4
BITMAP
0C00
0C00
0000
0000
FFC0
FFC0
0000
0000
0C00
0C00
ENDCHAR

STARTCHAR Delta
ENCODING 196
SWIDTH 654 0
DWIDTH 12 0
BBX 10 10 1 3
BITMAP
0C00
1E00
3F00
7380
E1C0
C0C0
C0C0
C0C0
FFC0
FFC0
ENDCHAR

STARTCHAR gradient
ENCODING 197
SWIDTH 654 0
DWIDTH 12 0
BBX 10 10 1 3
BITMAP
FFC0
FFC0
C0C0
C0C0
C0C0
E1C0
7380
3F00
1E00
0C00
ENDCHAR

STARTCHAR Phi
ENCODING 198
SWIDTH 654 0
DWIDTH 12 0
BBX 10 16 1 0
BITMAP
3F00
3F00
0C00
0C00
3F00
7F80
CCC0
CCC0
CCC0
CCC0
7F80
3F00
0C00
0C00
3F00
3F00
ENDCHAR

STARTCHAR Gamma
ENCODING 199
SWIDTH 654 0
DWIDTH 12 0
BBX 10 16 1 0
BITMAP
FFC0
FFC0
30C0
30C0
3000
3000
3000
3000
3000
3000
3000
3000
3000
3000
FC00
FC00
ENDCHAR

STARTCHAR similar
ENCODING 200
SWIDTH 654 0
DWIDTH 12 0
BBX 10 8 1 5
BITMAP
30C0
78C0
DCC0
CCC0
CCC0
CEC0
C780
C300
ENDCHAR

STARTCHAR approxequal
ENCODING 201
SWIDTH 654 0
DWIDTH 12 0
BBX 10 12 1 2
BITMAP
30C0
78C0
ECC0
CCC0
CCC0
CEC0
C780
C300
0000
0000
FFC0
FFC0
ENDCHAR

STARTCHAR Theta
ENCODING 202
SWIDTH 654 0
DWIDTH 12 0
BBX 10 16 1 0
BITMAP
0C00
1E00
3F00
7380
E1C0
C0C0
D2C0
DEC0
D2C0
C0C0
C0C0
E1C0
7380
3F00
1E00
0C00
ENDCHAR

STARTCHAR multiply
ENCODING 203
SWIDTH 654 0
DWIDTH 12 0
BBX 10 10 1 4
BITMAP
C0C0
E1C0
7380
3F00
1E00
1E00
3F00
7380
E1C0
C0C0
ENDCHAR

STARTCHAR Lambda
ENCODING 204
SWIDTH 654 0
DWIDTH 12 0
BBX 12 16 0 0
BITMAP
0600
0F00
0F00
1980
1980
1980
1980
30C0
30C0
30C0
70E0
6060
6060
6060
F0F0
F0F0
ENDCHAR

STARTCHAR arrowdblboth
ENCODING 205
SWIDTH 654 0
DWIDTH 12 0
BBX 12 14 0 2
BITMAP
1980
1980
39C0
30C0
7FE0
7FE0
C030
C030
7FE0
7FE0
30C0
39C0
1980
1980
ENDCHAR

STARTCHAR arrowdblright
ENCODING 206
SWIDTH 654 0
DWIDTH 12 0
BBX 10 14 1 2
BITMAP
3000
3800
1C00
0E00
FF00
FF80
00C0
00C0
FF80
FF00
0E00
1C00
3800
3000
ENDCHAR

STARTCHAR equivalence
ENCODING 207
SWIDTH 654 0
DWIDTH 12 0
BBX 10 10 1 4
BITMAP
FFC0
FFC0
0000
0000
FFC0
FFC0
0000
0000
FFC0
FFC0
ENDCHAR

STARTCHAR Pi
ENCODING 208
SWIDTH 654 0
DWIDTH 12 0
BBX 10 16 1 0
BITMAP
FFC0
FFC0
3300
3300
3300
3300
3300
3300
3300
3300
3300
3300
3300
3300
3300
3300
ENDCHAR

STARTCHAR Psi
ENCODING 209
SWIDTH 654 0
DWIDTH 12 0
BBX 10 16 1 0
BITMAP
C0C0
C0C0
CCC0
CCC0
CCC0
CCC0
CCC0
CCC0
CCC0
EDC0
7F80
3F00
0C00
0C00
3F00
3F00
ENDCHAR

STARTCHAR Sigma
ENCODING 211
SWIDTH 654 0
DWIDTH 12 0
BBX 10 16 1 0
BITMAP
FFC0
FFC0
70C0
38C0
1C00
0E00
0700
0700
0E00
1C00
3800
7000
E0C0
C0C0
FFC0
FFC0
ENDCHAR

STARTCHAR radical
ENCODING 214
SWIDTH 654 0
DWIDTH 12 0
BBX 12 18 0 0
BITMAP
0030
0030
0030
0060
0060
0060
00C0
00C0
00C0
0180
E180
F380
3300
3B00
1F00
0E00
0600
0600
ENDCHAR

STARTCHAR Omega
ENCODING 215
SWIDTH 654 0
DWIDTH 12 0
BBX 10 16 1 0
BITMAP
1E00
7F80
6180
E1C0
C0C0
C0C0
C0C0
C0C0
C0C0
C0C0
C0C0
E1C0
7380
3300
F3C0
F3C0
ENDCHAR

STARTCHAR Xi
ENCODING 216
SWIDTH 654 0
DWIDTH 12 0
BBX 10 16 1 0
BITMAP
FFC0
FFC0
0000
0000
0000
0000
3F00
3F00
0000
0000
0000
0000
0000
0000
FFC0
FFC0
ENDCHAR

STARTCHAR Upsilon1
ENCODING 217
SWIDTH 654 0
DWIDTH 12 0
BBX 10 16 1 0
BITMAP
C0C0
C0C0
C0C0
C0C0
C0C0
E1C0
6180
7380
3F00
1E00
0C00
0C00
0C00
0C00
0C00
0C00
ENDCHAR

STARTCHAR propersubset
ENCODING 218
SWIDTH 654 0
DWIDTH 12 0
BBX 10 12 1 2
BITMAP
3FC0
7FC0
E000
C000
C000
C000
C000
C000
C000
E000
7FC0
3FC0
ENDCHAR

STARTCHAR propersuperset
ENCODING 219
SWIDTH 654 0
DWIDTH 12 0
BBX 10 12 1 2
BITMAP
FF00
FF80
01C0
00C0
00C0
00C0
00C0
00C0
00C0
01C0
FF80
FF00
ENDCHAR

STARTCHAR intersection
ENCODING 220
SWIDTH 654 0
DWIDTH 12 0
BBX 10 13 1 2
BITMAP
3F00
7F80
E1C0
C0C0
C0C0
C0C0
C0C0
C0C0
C0C0
C0C0
C0C0
C0C0
C0C0
ENDCHAR

STARTCHAR union
ENCODING 221
SWIDTH 654 0
DWIDTH 12 0
BBX 10 12 1 2
BITMAP
C0C0
C0C0
C0C0
C0C0
C0C0
C0C0
C0C0
C0C0
C0C0
E1C0
7F80
3F00
ENDCHAR

STARTCHAR logicaland
ENCODING 222
SWIDTH 654 0
DWIDTH 12 0
BBX 10 12 1 2
BITMAP
0C00
0C00
1E00
3F00
3300
7380
6180
C0C0
C0C0
C0C0
C0C0
C0C0
ENDCHAR

STARTCHAR logicalor
ENCODING 223
SWIDTH 654 0
DWIDTH 12 0
BBX 10 12 1 2
BITMAP
C0C0
C0C0
C0C0
C0C0
C0C0
E1C0
6180
3300
3F00
1E00
0C00
0C00
ENDCHAR

STARTCHAR logicalnot
ENCODING 224
SWIDTH 654 0
DWIDTH 12 0
BBX 10 4 1 8
BITMAP
FFC0
FFC0
00C0
00C0
ENDCHAR

STARTCHAR alpha
ENCODING 225
SWIDTH 654 0
DWIDTH 12 0
BBX 11 12 1 0
BITMAP
3E60
7FE0
E3E0
C1C0
C180
C180
C180
C180
C1C0
E3E0
7FE0
3E60
ENDCHAR

STARTCHAR beta
ENCODING 226
SWIDTH 654 0
DWIDTH 12 0
BBX 11 20 1 -2
BITMAP
03C0
0FE0
0C60
0C60
18E0
18C0
1F80
1F80
19C0
31C0
30C0
30C0
70C0
60C0
61C0
6180
7F80
FF00
C000
C000
ENDCHAR

STARTCHAR chi
ENCODING 227
SWIDTH 654 0
DWIDTH 12 0
BBX 10 14 1 -2
BITMAP
60C0
70C0
31C0
3B80
1F00
1F00
0E00
1F00
3B00
7380
6180
E1C0
C0C0
C0C0
ENDCHAR

STARTCHAR delta
ENCODING 228
SWIDTH 654 0
DWIDTH 12 0
BBX 10 17 1 0
BITMAP
0F00
1F80
18C0
18C0
1C00
0E00
3F00
7F80
E1C0
C0C0
C0C0
C0C0
C0C0
C0C0
E1C0
7F80
3F00
ENDCHAR

STARTCHAR epsilon
ENCODING 229
SWIDTH 654 0
DWIDTH 12 0
BBX 10 12 1 0
BITMAP
3FC0
7FC0
E000
C000
C000
FF00
FF00
C000
C000
E000
7FC0
3FC0
ENDCHAR

STARTCHAR phi
ENCODING 230
SWIDTH 654 0
DWIDTH 12 0
BBX 10 16 1 -2
BITMAP
0040
00C0
3F80
7F80
C3C0
C2C0
C6C0
CCC0
C8C0
D8C0
D0C0
F0C0
7F80
7F00
C000
8000
ENDCHAR

STARTCHAR gamma
ENCODING 231
SWIDTH 654 0
DWIDTH 12 0
BBX 12 17 0 -4
BITMAP
7000
F830
9830
1870
1C60
0CE0
0CC0
0DC0
0F80
0780
0700
0600
0E00
0C00
1C00
1800
1800
ENDCHAR

STARTCHAR eta
ENCODING 232
SWIDTH 654 0
DWIDTH 12 0
BBX 11 16 0 -4
BITMAP
F380
F7C0
3CE0
3860
3060
3060
3060
3060
3060
3060
3060
3060
0060
0060
0060
0060
ENDCHAR

STARTCHAR iota
ENCODING 233
SWIDTH 654 0
DWIDTH 12 0
BBX 10 12 1 0
BITMAP
F000
F000
3000
3000
3000
3000
3000
3000
30C0
39C0
1F80
0F00
ENDCHAR

STARTCHAR theta
ENCODING 234
SWIDTH 654 0
DWIDTH 12 0
BBX 9 16 2 0
BITMAP
3E00
7F00
E380
C180
C180
C180
C180
FF80
FF80
C180
C180
C180
C180
E380
7F00
3E00
ENDCHAR

STARTCHAR kappa
ENCODING 235
SWIDTH 654 0
DWIDTH 12 0
BBX 10 12 1 0
BITMAP
F0C0
F1C0
3180
3380
3700
3E00
3C00
3E00
3700
3380
31C0
30C0
ENDCHAR

STARTCHAR lambda
ENCODING 236
SWIDTH 654 0
DWIDTH 12 0
BBX 10 16 1 0
BITMAP
6000
6000
7000
3000
3800
1C00
1C00
1E00
3600
3700
3300
6380
6180
61C0
C0C0
C0C0
ENDCHAR

STARTCHAR nu
ENCODING 238
SWIDTH 654 0
DWIDTH 12 0
BBX 10 12 1 0
BITMAP
E0C0
E0C0
60C0
60C0
60C0
70C0
31C0
3180
3380
3300
1F00
1E00
ENDCHAR

STARTCHAR partialdiff
ENCODING 239
SWIDTH 654 0
DWIDTH 12 0
BBX 9 16 2 0
BITMAP
6000
7800
1C00
0E00
3F00
7F00
E180
C180
C180
C180
C180
C180
C180
E380
7F00
3E00
ENDCHAR

STARTCHAR pi
ENCODING 240
SWIDTH 654 0
DWIDTH 12 0
BBX 10 12 1 0
BITMAP
FFC0
FFC0
3180
3180
3180
3180
3180
3180
3180
3180
E180
C180
ENDCHAR

STARTCHAR psi
ENCODING 241
SWIDTH 654 0
DWIDTH 12 0
BBX 10 19 1 -4
BITMAP
0C00
0C00
0C00
CCC0
CCC0
CCC0
CCC0
CCC0
CCC0
CCC0
CCC0
CCC0
EDC0
7F80
3F00
0C00
0C00
0C00
0C00
ENDCHAR

STARTCHAR rho
ENCODING 242
SWIDTH 654 0
DWIDTH 12 0
BBX 9 15 2 -3
BITMAP
3E00
7F00
E380
C180
C180
C180
C180
C180
C380
FF00
FE00
C000
C000
C000
C000
ENDCHAR

STARTCHAR sigma
ENCODING 243
SWIDTH 654 0
DWIDTH 12 0
BBX 10 12 1 0
BITMAP
0FC0
3FC0
7F00
E380
C1C0
C0C0
C0C0
C0C0
C0C0
E1C0
7F80
3F00
ENDCHAR

STARTCHAR tau
ENCODING 244
SWIDTH 654 0
DWIDTH 12 0
BBX 10 15 1 0
BITMAP
00C0
00C0
00C0
3F80
7F00
CC00
CC00
0C00
0C00
0C00
0C00
0C00
0C00
0F00
0700
ENDCHAR

STARTCHAR florin
ENCODING 246
SWIDTH 654 0
DWIDTH 12 0
BBX 10 21 1 -3
BITMAP
0300
0780
0CC0
0CC0
0C00
0C00
0C00
3F00
3F00
0C00
0C00
0C00
0C00
0C00
0C00
0C00
CC00
CC00
CC00
7800
3000
ENDCHAR

STARTCHAR omega
ENCODING 247
SWIDTH 654 0
DWIDTH 12 0
BBX 10 12 1 0
BITMAP
3300
7380
6180
C0C0
C0C0
C0C0
CCC0
CCC0
CCC0
EDC0
7F80
3300
ENDCHAR

STARTCHAR xi
ENCODING 248
SWIDTH 654 0
DWIDTH 12 0
BBX 9 20 2 -2
BITMAP
C000
C000
EF00
7F80
3980
3000
3000
3000
3E00
3E00
6000
E000
C000
C000
C000
E000
7F00
3F80
0300
0600
ENDCHAR

STARTCHAR upsilon
ENCODING 249
SWIDTH 654 0
DWIDTH 12 0
BBX 11 13 0 0
BITMAP
E000
F0E0
30E0
3060
3060
3060
3060
30E0
30C0
31C0
3380
1F00
0E00
ENDCHAR

STARTCHAR zeta
ENCODING 250
SWIDTH 654 0
DWIDTH 12 0
BBX 9 21 2 -3
BITMAP
C000
C000
E700
7F00
0C00
1C00
1800
3800
3000
7000
6000
E000
C000
C000
C000
E000
FF00
7F80
0380
0300
0600
ENDCHAR

STARTCHAR arrowleft
ENCODING 251
SWIDTH 654 0
DWIDTH 12 0
BBX 11 6 1 5
BITMAP
2000
6000
FFE0
FFE0
6000
2000
ENDCHAR

STARTCHAR arrowup
ENCODING 252
SWIDTH 654 0
DWIDTH 12 0
BBX 6 14 3 1
BITMAP
30
78
FC
30
30
30
30
30
30
30
30
30
30
30
ENDCHAR

STARTCHAR arrowright
ENCODING 253
SWIDTH 654 0
DWIDTH 12 0
BBX 11 6 0 5
BITMAP
0080
00C0
FFE0
FFE0
00C0
0080
ENDCHAR

STARTCHAR arrowdown
ENCODING 254
SWIDTH 654 0
DWIDTH 12 0
BBX 6 14 3 2
BITMAP
30
30
30
30
30
30
30
30
30
30
30
FC
78
30
ENDCHAR
ENDFONT
